<svg width="32" height="32" viewBox="0 0 32 32" fill="none" xmlns="http://www.w3.org/2000/svg">
  <defs>
    <linearGradient id="gradient" x1="0%" y1="0%" x2="100%" y2="100%">
      <stop offset="0%" stop-color="#6366f1"/>
      <stop offset="100%" stop-color="#a855f7"/>
    </linearGradient>
  </defs>
  <rect width="32" height="32" rx="8" fill="url(#gradient)"/>
  <path d="M16 8C14.3431 8 13 9.34315 13 11V17C13 18.6569 14.3431 20 16 20C17.6569 20 19 18.6569 19 17V11C19 9.34315 17.6569 8 16 8Z" fill="white"/>
  <path d="M10 15V17C10 20.3137 12.6863 23 16 23C19.3137 23 22 20.3137 22 17V15" stroke="white" stroke-width="2" stroke-linecap="round"/>
  <path d="M16 23V26" stroke="white" stroke-width="2" stroke-linecap="round"/>
  <circle cx="24" cy="8" r="4" fill="#fbbf24"/>
  <path d="M22 8L23.5 9.5L26 7" stroke="white" stroke-width="1.5" stroke-linecap="round" stroke-linejoin="round"/>
</svg>
